<svg width="15" height="10" viewBox="0 0 15 10" fill="none" xmlns="http://www.w3.org/2000/svg">
<path fill-rule="evenodd" clip-rule="evenodd" d="M10.6876 9.90361C10.6876 9.90361 10.2625 9.40195 9.90819 8.95861C11.4552 8.52695 12.0457 7.57028 12.0457 7.57028C11.5615 7.88528 11.101 8.10695 10.6876 8.25861C10.0971 8.50361 9.53029 8.66694 8.97524 8.76028C7.84153 8.97028 6.80229 8.91194 5.91657 8.74861C5.24343 8.62028 4.66476 8.43361 4.18057 8.24695C3.90896 8.14195 3.61372 8.01361 3.31848 7.85028C3.30077 7.83861 3.28305 7.82986 3.26534 7.82111C3.24762 7.81236 3.22991 7.80361 3.21219 7.79194C3.18857 7.78028 3.17676 7.76861 3.16496 7.75695C2.95238 7.64028 2.83429 7.55861 2.83429 7.55861C2.83429 7.55861 3.40115 8.49194 4.90096 8.93528C4.54667 9.37861 4.10972 9.90361 4.10972 9.90361C1.49981 9.82195 0.507812 8.13028 0.507812 8.13028C0.507812 4.37361 2.20838 1.32861 2.20838 1.32861C3.90896 0.0686126 5.52686 0.103613 5.52686 0.103613L5.64496 0.243613C3.51924 0.850279 2.53905 1.77195 2.53905 1.77195C2.53905 1.77195 2.79886 1.63195 3.23581 1.43361C4.49943 0.885279 5.50324 0.733613 5.91657 0.698613L5.94305 0.694191C6.00262 0.68417 6.05548 0.675279 6.11734 0.675279C6.83772 0.581946 7.65257 0.558613 8.50286 0.651946C9.62476 0.780279 10.8293 1.10695 12.0575 1.77195C12.0575 1.77195 11.1246 0.896946 9.11696 0.290279L9.28229 0.103613C9.28229 0.103613 10.9002 0.0686126 12.6008 1.32861C12.6008 1.32861 14.3013 4.37361 14.3013 8.13028C14.3013 8.13028 13.2975 9.82195 10.6876 9.90361ZM5.52867 4.66691C4.86083 4.66691 4.33359 5.26751 4.33359 6.00024C4.33359 6.73297 4.87255 7.33357 5.52867 7.33357C6.19651 7.33357 6.72375 6.73297 6.72375 6.00024C6.73547 5.26751 6.19651 4.66691 5.52867 4.66691ZM8.61022 6.00024C8.61022 5.26751 9.13746 4.66691 9.8053 4.66691C10.4731 4.66691 11.0004 5.26751 11.0004 6.00024C11.0004 6.73297 10.4731 7.33357 9.8053 7.33357C9.14918 7.33357 8.61022 6.73297 8.61022 6.00024Z" fill="#BABABA"/>
</svg>
