<svg width="15" height="10" viewBox="0 0 15 10" fill="none" xmlns="http://www.w3.org/2000/svg">
<path fill-rule="evenodd" clip-rule="evenodd" d="M10.6871 9.90337C10.6871 9.90337 10.262 9.4017 9.90771 8.95837C11.4548 8.5267 12.0452 7.57003 12.0452 7.57003C11.561 7.88503 11.1005 8.1067 10.6871 8.25837C10.0967 8.50337 9.5298 8.6667 8.97475 8.76003C7.84104 8.97003 6.8018 8.9117 5.91609 8.74837C5.24294 8.62003 4.66428 8.43337 4.18009 8.2467C3.90847 8.1417 3.61323 8.01337 3.31799 7.85003C3.30028 7.83837 3.28256 7.82962 3.26485 7.82087C3.24713 7.81212 3.22942 7.80337 3.21171 7.7917C3.18809 7.78003 3.17628 7.76837 3.16447 7.7567C2.9519 7.64003 2.8338 7.55837 2.8338 7.55837C2.8338 7.55837 3.40066 8.4917 4.90047 8.93503C4.54618 9.37837 4.10923 9.90337 4.10923 9.90337C1.49932 9.8217 0.507324 8.13003 0.507324 8.13003C0.507324 4.37337 2.2079 1.32837 2.2079 1.32837C3.90847 0.0683685 5.52637 0.103368 5.52637 0.103368L5.64447 0.243368C3.51875 0.850035 2.53856 1.7717 2.53856 1.7717C2.53856 1.7717 2.79837 1.6317 3.23532 1.43337C4.49894 0.885035 5.50275 0.733368 5.91609 0.698368L5.94256 0.693947C6.00213 0.683926 6.05499 0.675035 6.11685 0.675035C6.83723 0.581702 7.65209 0.558368 8.50237 0.651702C9.62428 0.780035 10.8288 1.1067 12.057 1.7717C12.057 1.7717 11.1241 0.896702 9.11647 0.290035L9.2818 0.103368C9.2818 0.103368 10.8997 0.0683685 12.6003 1.32837C12.6003 1.32837 14.3008 4.37337 14.3008 8.13003C14.3008 8.13003 13.297 9.8217 10.6871 9.90337ZM5.52818 4.66666C4.86034 4.66666 4.3331 5.26726 4.3331 6C4.3331 6.73273 4.87206 7.33333 5.52818 7.33333C6.19602 7.33333 6.72326 6.73273 6.72326 6C6.73498 5.26726 6.19602 4.66666 5.52818 4.66666ZM8.60973 6C8.60973 5.26726 9.13697 4.66666 9.80481 4.66666C10.4726 4.66666 10.9999 5.26726 10.9999 6C10.9999 6.73273 10.4726 7.33333 9.80481 7.33333C9.14869 7.33333 8.60973 6.73273 8.60973 6Z" fill="#FFB24B" fill-opacity="1"/>
</svg>
