<svg width="40" height="40" viewBox="0 0 40 40" fill="none" xmlns="http://www.w3.org/2000/svg">
<path fill-rule="evenodd" clip-rule="evenodd" d="M20 0C8.9543 0 0 8.9543 0 20C0 31.0457 8.9543 40 20 40C31.0457 40 40 31.0457 40 20C40 8.9543 31.0457 0 20 0ZM12.4208 8.66666H28.2455C29.58 8.66666 30.6665 9.74 30.6665 11.07V32L28.1275 29.7833L26.6985 28.4767L25.1869 27.0883L25.8128 29.2467H12.4208C11.0863 29.2467 9.99983 28.1733 9.99983 26.8433V11.07C9.99983 9.74 11.0863 8.66666 12.4208 8.66666Z" fill="#BABABA"/>
</svg>
